PathFileType  4	(X/Y/Z) C:\Users\antoi\Documents\MyRepositories\mobilecap\ResultsAnalysis
DataRate	CameraRate	NumFrames	NumMarkers	Units	OrigDataRate	OrigDataStartFrame	OrigNumFrames
100.0	100.0	7	51	mm	100.0	107	170
Frame#	Time	r_knee			r_shank_antsup			r_ankle			r_calc			r_5meta			r_toe			L_knee			L_shank_antsup			L_ankle			L_calc			L_5meta			L_toe			r_sh2			r_sh3			r_sh4			L_sh2			L_sh3			r_thigh1			r_thigh2			r_thigh3			r_thigh4			r_thigh5			L_thigh1			L_thigh2			L_thigh3			L_thigh4			r.ASIS			r.PSIS			L.ASIS			L.PSIS			C7			R_Shoulder			L_Shoulder			R_Sternum			L_Sternum			R_humerus			R_elbow_med			R_elbow_lat			R_forearm			R_wrist_radius			R_wrist_ulna			L_humerus			L_elbow_med			L_elbow_lat			L_forearm			L_wrist_radius			L_wrist_ulna			R_HJC			L_HJC			R_HJC_reg			L_HJC_reg			
		X1	Y1	Z1	X2	Y2	Z2	X3	Y3	Z3	X4	Y4	Z4	X5	Y5	Z5	X6	Y6	Z6	X7	Y7	Z7	X8	Y8	Z8	X9	Y9	Z9	X10	Y10	Z10	X11	Y11	Z11	X12	Y12	Z12	X13	Y13	Z13	X14	Y14	Z14	X15	Y15	Z15	X16	Y16	Z16	X17	Y17	Z17	X18	Y18	Z18	X19	Y19	Z19	X20	Y20	Z20	X21	Y21	Z21	X22	Y22	Z22	X23	Y23	Z23	X24	Y24	Z24	X25	Y25	Z25	X26	Y26	Z26	X27	Y27	Z27	X28	Y28	Z28	X29	Y29	Z29	X30	Y30	Z30	X31	Y31	Z31	X32	Y32	Z32	X33	Y33	Z33	X34	Y34	Z34	X35	Y35	Z35	X36	Y36	Z36	X37	Y37	Z37	X38	Y38	Z38	X39	Y39	Z39	X40	Y40	Z40	X41	Y41	Z41	X42	Y42	Z42	X43	Y43	Z43	X44	Y44	Z44	X45	Y45	Z45	X46	Y46	Z46	X47	Y47	Z47	X48	Y48	Z48	X49	Y49	Z49	X50	Y50	Z50	X51	Y51	Z51	

107	1.06000000	954.25705	449.33500	-67.22933	912.13661	338.49896	-85.29323	659.60997	229.69291	-93.07774	599.30972	240.48677	-145.10241	687.30892	103.31160	-67.56029	724.63530	87.67156	-110.40531	877.61282	472.92791	-364.18297	904.93621	376.06934	-303.87223	825.79936	87.85026	-328.90643	769.95436	51.91226	-288.97388	941.94521	38.38962	-339.50376	976.25629	55.53408	-281.79271	820.44715	275.79730	-97.23226	875.63865	381.21999	-32.13910	776.50059	331.01261	-53.00350	878.62627	390.29573	-386.43084	870.87509	269.62675	-389.33558	954.37605	759.55172	-57.38334	994.44336	655.52904	-56.28403	951.87476	614.45373	-21.21140	853.25179	720.69943	-22.78770	895.03877	612.17083	-22.85812	944.35321	764.85328	-370.22350	951.71698	628.85388	-363.00463	844.07479	763.94665	-416.78957	849.49204	621.63341	-401.70996	955.15832	903.12871	-86.47631	781.57317	974.63951	-144.42019	964.29350	928.70239	-328.85646	778.82268	989.78779	-260.95265	872.00812	1419.46349	-265.11308	941.97306	1399.06551	-116.67315	909.54702	1358.55234	-422.24988	989.70778	1349.40548	-251.98999	986.02064	1340.40606	-294.70113	944.29222	1281.30854	-30.83470	819.66703	1105.26703	-35.23082	860.94698	1114.02462	27.56321	908.05374	996.33005	48.68951	942.69344	898.92758	51.06827	912.44821	892.92391	72.82314	901.86651	1204.38622	-472.22399	828.74888	1024.93254	-391.03449	821.03047	1030.34907	-462.68482	864.91464	944.60534	-495.55834	915.98374	825.33707	-496.47589	885.62978	812.99447	-500.33929	859.04859	845.96863	-118.26292	865.88273	863.50267	-306.70476	880.30981	845.31103	-126.42479	876.54387	866.05503	-286.00893	
108	1.07000000	973.51471	453.53764	-68.27264	935.12570	341.55595	-86.63640	686.56470	223.67830	-91.03048	623.98335	230.70146	-141.36542	722.57189	98.89224	-66.71203	760.15836	86.23882	-110.33025	881.32763	472.78158	-363.58598	907.62316	375.73429	-303.35988	825.97693	88.14655	-328.59884	770.05310	52.05950	-288.68609	941.94059	38.47736	-339.33409	976.23539	55.36452	-281.59991	845.23273	275.46644	-97.25099	898.26614	382.34851	-32.48099	799.96113	329.42762	-51.46499	881.68315	390.14855	-385.92121	873.19460	269.54192	-388.83691	963.27461	763.37377	-57.39271	1006.55473	660.80827	-57.13866	965.65115	618.32260	-21.66049	863.53754	721.44217	-22.80885	908.85201	614.27771	-23.06270	950.80759	764.22756	-369.22740	956.97371	628.17682	-361.88731	850.75900	764.08594	-416.53490	854.86473	621.76581	-401.31720	961.64936	904.00243	-86.07991	788.46976	975.45609	-144.69812	971.75539	928.27167	-328.35762	786.25064	990.34666	-261.28228	881.19343	1419.82557	-264.65307	950.27073	1398.70131	-115.76890	919.96178	1359.34180	-421.58859	998.62498	1349.25596	-250.91790	995.20246	1340.29983	-293.71426	951.83863	1280.66960	-30.31381	826.66747	1105.05277	-35.55951	867.52818	1113.71950	27.50103	914.56481	996.08259	48.85414	949.41393	899.08670	51.90275	918.90260	892.78588	73.09507	913.03893	1205.57666	-472.44784	840.00130	1025.23935	-392.91906	833.19370	1030.94853	-464.60069	878.71691	945.83903	-497.23897	931.26303	827.04084	-497.98285	901.03241	814.63656	-502.52910	865.56469	846.83877	-117.77151	873.05310	863.51940	-306.26566	886.89539	845.83692	-126.23018	883.85825	866.21122	-285.74970	
109	1.08000000	992.23548	458.03587	-69.37360	957.98639	344.67667	-87.92987	714.19786	216.89276	-89.27826	649.77182	220.09380	-138.12411	758.32404	94.34806	-66.05676	796.19209	84.65812	-110.30695	885.00067	472.64683	-363.04074	910.22869	375.39207	-302.86712	826.10604	88.45506	-328.31538	770.15290	52.24525	-288.43502	941.97244	38.59353	-339.15184	976.24550	55.22970	-281.41813	870.33788	274.98201	-97.46211	920.59131	383.35691	-32.96310	823.62329	327.22427	-50.04139	884.67697	390.00017	-385.44030	875.43849	269.44393	-388.37079	972.09581	767.28829	-57.49121	1018.38107	666.21410	-58.14765	979.22658	622.45681	-22.18338	873.85277	722.43740	-22.70556	922.51582	616.68367	-23.21271	957.27326	763.55141	-368.22507	962.18146	627.43720	-360.78740	857.50224	764.21005	-416.27939	860.18671	621.91185	-400.94527	968.22035	904.90290	-85.70423	795.42426	976.20850	-144.99117	979.22401	927.78800	-327.81260	793.69587	990.87401	-261.64483	890.32165	1420.19602	-264.01487	958.44396	1398.30198	-114.70804	930.29806	1360.24799	-420.78933	1007.45566	1349.16174	-249.68422	1004.18969	1340.20033	-292.59091	959.21774	1280.02693	-29.63484	833.54704	1104.79084	-35.79587	873.92401	1113.36709	27.55595	920.87282	995.75262	49.15251	955.90230	899.05334	52.70512	925.23453	892.46928	73.41397	924.15328	1206.88017	-472.58792	851.36374	1025.62840	-394.69076	845.35827	1031.66332	-466.42465	892.38375	947.14543	-498.87898	946.32806	828.85899	-499.48834	916.14819	816.43160	-504.67471	872.14840	847.70259	-117.26216	880.26811	863.48035	-305.80656	893.59611	846.30182	-126.04237	891.23260	866.34142	-285.44215	
110	1.09000000	1010.32476	462.72650	-70.47072	980.65024	347.86466	-89.06744	742.48451	209.44467	-87.89046	676.72014	208.80387	-135.53013	794.38449	89.79292	-65.54713	832.57005	82.96723	-110.25714	888.63076	472.51378	-362.56220	912.77861	375.04071	-302.39910	826.20116	88.77819	-328.04722	770.26535	52.44253	-288.20948	942.02156	38.72782	-338.96723	976.27969	55.13026	-281.25303	895.68997	274.38734	-97.82566	942.45086	384.26982	-33.54406	847.44458	324.44287	-48.90333	887.59181	389.84139	-384.99834	877.57002	269.33650	-387.94073	980.86879	771.24892	-57.62839	1029.91330	671.66488	-59.24563	992.55361	626.77866	-22.73748	884.19770	723.64955	-22.44869	935.99725	619.34572	-23.27479	963.70982	762.81119	-367.28047	967.33970	626.64060	-359.76339	864.26090	764.30889	-416.03251	865.40536	622.06183	-400.60363	974.86444	905.84394	-85.34383	802.42119	976.90676	-145.31234	986.69584	927.25842	-327.24748	801.17935	991.35139	-262.04658	899.39058	1420.57001	-263.20629	966.47641	1397.87720	-113.50127	940.55471	1361.26540	-419.84875	1016.19411	1349.11913	-248.29290	1013.02218	1340.13211	-291.32113	966.40334	1279.39240	-28.79656	840.33142	1104.48101	-35.95293	880.15586	1112.97505	27.71144	926.98925	995.34625	49.56161	962.14561	898.81380	53.44334	931.39905	892.00784	73.77370	935.20517	1208.28026	-472.61332	862.79187	1026.11007	-396.34004	857.52348	1032.48733	-468.15293	905.90335	948.53100	-500.47584	961.15621	830.77199	-500.98244	930.98035	818.34322	-506.74677	878.80164	848.56831	-116.73863	887.53350	863.38218	-305.33179	900.37950	846.72666	-125.87102	898.68353	866.43220	-285.12109	
111	1.10000000	1027.69777	467.48764	-71.50442	1003.01909	351.11759	-89.97276	771.38903	201.46110	-86.92477	704.81475	196.94852	-133.68569	830.65945	85.34377	-65.14399	869.18915	81.25197	-110.13713	892.22620	472.36926	-362.14886	915.31833	374.67414	-301.95908	826.29281	89.11946	-327.77866	770.39824	52.62716	-287.98615	942.06660	38.87099	-338.79180	976.33088	55.06132	-281.10240	921.17785	273.71548	-98.29453	963.70340	385.10209	-34.15760	871.33392	321.17320	-48.17579	890.44238	389.66127	-384.59604	879.58059	269.22111	-387.54255	989.60692	775.18535	-57.76835	1041.15117	677.06146	-60.36398	1005.58259	631.18697	-23.28503	894.56322	725.03331	-22.03249	949.25519	622.19814	-23.22866	970.08583	762.00728	-366.44291	972.45048	625.79815	-358.85910	870.97852	764.36694	-415.79755	870.49734	622.20199	-400.29047	981.57856	906.81990	-84.99705	809.44222	977.57173	-145.67060	994.16903	926.69991	-326.69855	808.72009	991.75981	-262.48180	908.38708	1420.94476	-262.24379	974.35982	1397.43492	-112.16342	950.73829	1362.38143	-418.76293	1024.84515	1349.11928	-246.75409	1021.76760	1340.12874	-289.89753	973.37995	1278.77361	-27.80533	847.03314	1104.13035	-36.04815	886.24994	1112.55235	27.94483	932.92030	994.87279	50.05250	968.13097	898.39224	54.11733	937.33978	891.44656	74.16218	946.18706	1209.76260	-472.50083	874.25151	1026.69061	-397.86118	869.68999	1033.41675	-469.78517	919.28011	950.00517	-502.01769	975.72955	832.75425	-502.46113	945.55296	820.33206	-508.71438	885.52503	849.43700	-116.21244	894.84882	863.23065	-304.85269	907.20186	847.14696	-125.72219	906.21753	866.47146	-284.82560	
112	1.11000000	1044.28503	472.19113	-72.41875	1024.96252	354.41270	-90.60028	800.87413	193.06408	-86.41669	734.00249	184.63385	-132.62083	867.12087	81.11361	-64.82132	905.98989	79.63486	-109.94020	895.80599	472.20068	-361.78724	917.89840	374.27941	-301.54379	826.40973	89.47704	-327.49215	770.54693	52.78666	-287.73444	942.09600	39.02209	-338.63402	976.39622	55.01756	-280.95830	946.67922	272.99476	-98.80700	984.24110	385.85620	-34.73035	895.16160	317.53304	-47.89267	893.27234	389.44776	-384.22309	881.48930	269.09316	-387.16341	998.30357	779.00884	-57.89520	1052.10482	682.29720	-61.44318	1018.26737	635.56989	-23.79464	904.93062	726.54177	-21.47306	962.24366	625.16104	-23.06473	976.39025	761.15083	-365.74758	977.51972	624.92124	-358.10457	877.59879	764.36928	-415.57326	875.47830	622.31282	-399.99664	988.37766	907.80614	-84.67685	816.48436	978.21929	-146.06756	1001.64294	926.13536	-326.20697	816.32508	992.08717	-262.93514	917.29456	1421.31937	-261.14353	982.09867	1396.97774	-110.70873	960.85975	1363.57773	-417.53036	1033.42587	1349.15103	-245.08095	1030.49110	1340.21554	-288.31967	980.15257	1278.16999	-26.67531	853.64823	1103.75007	-36.10129	892.23070	1112.10405	28.23157	938.66849	994.34098	50.59752	973.85247	897.83020	54.74917	943.01332	890.82274	74.56649	957.09288	1211.31369	-472.23668	885.72344	1027.36566	-399.25711	881.85625	1034.44817	-471.32180	932.53151	951.57366	-503.48403	990.03550	834.78151	-503.92457	959.90317	822.35921	-510.55292	892.33030	850.29817	-115.70454	902.20929	863.03870	-304.38977	914.04369	847.59088	-125.60165	913.82823	866.45533	-284.58705	
113	1.12000000	1060.03372	476.71207	-73.16155	1046.32745	357.70634	-90.93583	830.90943	184.36281	-86.37144	764.21409	171.97342	-132.28560	903.77435	77.19974	-64.56903	942.93429	78.25150	-109.69084	899.40264	471.99789	-361.45603	920.56366	373.83600	-301.13923	826.56481	89.84158	-327.17432	770.69009	52.92575	-287.42544	942.11046	39.18557	-338.49612	976.47915	54.99644	-280.81242	972.09298	272.26025	-99.28315	1003.98645	386.52432	-35.20126	918.78302	313.64146	-47.99446	896.14192	389.18806	-383.85829	883.33359	268.94234	-386.78307	1006.93583	782.62263	-58.01226	1062.79221	687.26840	-62.44041	1030.56989	639.81756	-24.23927	915.26944	728.13086	-20.80058	974.91415	628.14857	-22.78274	982.63371	760.25478	-365.21868	982.56321	624.01615	-357.51731	884.07859	764.30555	-415.35776	880.39826	622.37057	-399.71072	995.29583	908.76554	-84.41234	823.57125	978.84580	-146.49637	1009.11614	925.58728	-325.81212	823.98140	992.33339	-263.38887	926.10258	1421.69092	-259.91434	989.70933	1396.50040	-109.14765	970.92814	1364.83246	-416.15403	1041.95871	1349.20264	-243.28643	1039.22943	1340.39542	-286.59605	986.74881	1277.57035	-25.42755	860.16011	1103.35075	-36.12986	898.11525	1111.62675	28.54922	944.23568	993.75436	51.17409	979.31412	897.16391	55.36798	948.40216	890.15429	74.97674	967.92305	1212.92020	-471.81708	897.19955	1028.11996	-400.54100	894.01784	1035.57638	-472.76029	945.68029	953.23416	-504.84954	1004.07571	836.83948	-505.37173	974.07441	824.39087	-512.25074	899.24411	851.12899	-115.24327	909.60749	862.82191	-303.97123	920.93242	848.05830	-125.51452	921.49319	866.39138	-284.41921	
